<svg id="Layer_1" data-name="Layer 1" xmlns="http://www.w3.org/2000/svg" viewBox="0 0 40 40"><defs><style>.cls-1{fill:#452062;}.cls-2{fill:#f38582;}</style></defs><title>Loss of Luggage </title><g id="_9dKl5g" data-name="9dKl5g"><path class="cls-1" d="M15.62,13.35c0-.37.05-1.55.07-1.77a1.74,1.74,0,0,1,1.89-1.8q2.49,0,5,0a1.73,1.73,0,0,1,1.83,1.85c0,.22,0,1.39.08,1.73l5.38,0c2,0,2.51.5,2.5,2.55q0,6-.05,12c0,1.63-.63,2.26-2.24,2.26l-20.23-.1c-1.57,0-2.19-.64-2.18-2.21q0-6.25.06-12.51c0-1.47.61-2.09,2.07-2.09C11.69,13.32,13.61,13.34,15.62,13.35ZM27.41,29l.06-14.38-14.6-.07L12.8,28.94Zm-15.92-.12.06-14.38H10.22c-1.34,0-1.34,0-1.34,1.36,0,3.61-.05,7.22-.05,10.83C8.84,29,8.3,29,11.23,29A1.28,1.28,0,0,0,11.49,28.89ZM28.72,29l.83.06c1.55,0,1.57,0,1.58-1.56,0-3.62,0-7.24,0-10.85,0-2.23,0-2.23-2.21-2-.06,0-.11.07-.17.11ZM17,13.29l6.16,0C23.29,12.06,23.19,11,22,11c-1.33,0-2.66,0-4,0C16.9,11,16.79,12,17,13.29Z"/></g><rect class="cls-2" x="14.13" y="15.95" width="13.28" height="13.06"/><path class="cls-1" d="M18.29,21a2.35,2.35,0,0,1,2.55-2.55c1.49,0,2.41.69,2.41,2,0,1.71-1.71,1.91-1.71,3.25H20.09c0-1.74,1.38-1.82,1.38-2.94,0-.5-.3-.72-.81-.72s-.87.32-.88,1Zm3.44,4.48a.94.94,0,1,1-1.87,0,.94.94,0,0,1,1.87,0Z"/></svg>