<svg id="Layer_1" data-name="Layer 1" xmlns="http://www.w3.org/2000/svg" viewBox="0 0 40 40"><defs><style>.cls-1{fill:#f38582;}.cls-2{fill:#452062;}.cls-3{fill:#fff;}</style></defs><title>Medical expenses due to accident</title><path class="cls-1" d="M27.91,24.18H25.12c-.63,0-.73.12-.73.86v3.24H20.63V25c0-.75-.08-.84-.73-.85H17.16V20.74a1,1,0,0,1,1-1h1.79c.64,0,.72-.1.72-.85V15.71h3.76v3.14c0,.83.08.93.78.93h2.74Z"/><path class="cls-1" d="M28.22,23.87h-3c-.68,0-.79.11-.79.8v3H20.3v-3c0-.69-.09-.78-.79-.78h-3V19.78h3c.7,0,.79-.09.79-.79V16h4.09v2.91c0,.77.09.86.85.86h3Z"/><path class="cls-2" d="M26,18.7H24.86V15.54c0-.82-.13-.95-.92-.95H19.22c-.77,0-.86.09-.86.84s0,1.36,0,2.07v1.21H15.06c-.71,0-.86.17-.87.88v4.58c0,1,.1,1.08,1.09,1.08h3.07v1.2c0,.72,0,1.4,0,2.09s.1.82.81.82h4.72c.86,0,1-.11,1-1V25.26H28c.87,0,1-.11,1-.95V19.93c0-1.19,0-1.22-1.2-1.23Zm1.91,5.48H24.64c-.74,0-.85.12-.85.86s0,1.39,0,2.08v1.16h-4.4V25c0-.75-.1-.84-.85-.85H15.31v-4.4h3.22c.75,0,.85-.1.85-.85V15.71h4.4v3.14c0,.83.1.93.92.93h3.21Z"/><path class="cls-2" d="M21.8,35.26A13.94,13.94,0,1,1,35.74,21.33,13.95,13.95,0,0,1,21.8,35.26Zm0-26.54A12.61,12.61,0,1,0,34.41,21.33,12.62,12.62,0,0,0,21.8,8.72Z"/><circle class="cls-3" cx="11.85" cy="10.71" r="5.31"/><path class="cls-2" d="M11.85,16.68a6,6,0,1,1,6-6A6,6,0,0,1,11.85,16.68Zm0-10.62a4.65,4.65,0,1,0,4.64,4.65A4.66,4.66,0,0,0,11.85,6.06Z"/><path class="cls-2" d="M13.75,8.67l-.44.88a3.25,3.25,0,0,0-1.59-.48c-.46,0-.81.15-.81.55,0,1,2.94.46,2.93,2.47,0,1.13-1,1.64-2.12,1.64A3.4,3.4,0,0,1,9.5,13l.43-.85a3,3,0,0,0,1.85.68c.5,0,.9-.17.9-.59,0-1.13-2.91-.5-2.9-2.49,0-1.12,1-1.6,2-1.6A3.53,3.53,0,0,1,13.75,8.67Z"/><rect class="cls-2" x="11.38" y="7.38" width="0.47" height="7.21"/><rect class="cls-2" x="11.38" y="13.38" width="0.47" height="1.03"/></svg>