<svg id="Layer_1" data-name="Layer 1" xmlns="http://www.w3.org/2000/svg" viewBox="0 0 40 40"><defs><style>.cls-1{fill:#f38582;}.cls-2{fill:#452062;}</style></defs><title>Accidental Death</title><g id="SHOnVh"><path class="cls-1" d="M29.65,25.42c.53,1.07.8,1.94,1.33,3,.51-.29,1.79-.86,2.29-1.16s.27.18.71.5c1.29.91,2.72,1.76,4,2.67.51.36.63.5.33,1s-.4.71-.87.41-1.11-.77-1.66-1.15-1.21-.85-1.8-1.28a.26.26,0,0,0-.32,0c-.45.26-.91.5-1.36.75a1,1,0,0,0-.18.17l0,.06c.35.05-.19.33.16.38s.77.31,1,.33a2.84,2.84,0,0,1,1,.67c1.19,1.06,2.48,1.61,3.67,2.67.6.53,0,1,.13,1.47-.41.21-.5.27-.89-.07L35.5,34.29c-.53-.47-1.74-1.61-2.28-2.08a.68.68,0,0,0-.31-.14c-1.25-.2-1.82-.15-3.07-.35A2.37,2.37,0,0,1,28,30.35c-.56-1.11-1.12-2.22-1.67-3.34l-.13-.24c-.15.06-.62.45-.76.51-.64.28-1.29.1-1.92.39a1.21,1.21,0,0,1-1,0l-3.28-1.16a1,1,0,0,1-.64-1.3c.19-.56.76-.39,1.33-.19.93.32,1.85.65,2.78,1a.51.51,0,0,0,.42,0c2.57-1.05,5-2.39,7.47-3.65a1,1,0,0,0,.55-.65c.26-.87.54-1.73.83-2.59.14-.41.53-.34,1-.38s.11.29.34.66.09.39,0,.67c-.37,1.13-.31,1.21-.67,2.34-.1.31-.08,1.27-.37,1.41l-1.92,1C30.3,24.86,29.73,25.38,29.65,25.42Z"/><path class="cls-1" d="M26.5,23.71a2.12,2.12,0,0,1-2.1-2.14c0-1.15.4-1.49,1.58-1.49a3.36,3.36,0,0,1,1.33,1.67C27.82,22.78,27.68,23.71,26.5,23.71Z"/></g><path class="cls-2" d="M35.31,31.71c.37.27.79.57,1.22.85a1.46,1.46,0,0,0,1.08.18,1.56,1.56,0,0,0,1-.7,1.47,1.47,0,0,0-.49-2l-1.36-1c-.84-.59-1.68-1.17-2.51-1.77a1.55,1.55,0,0,0-1.84-.08c-.33.2-.66.38-1,.58l-.08,0L30.1,25.47l.61-.32,1.12-.57a1.61,1.61,0,0,0,.83-.95c.37-1.13.73-2.26,1.09-3.39a1.4,1.4,0,0,0-.13-1.2,1.44,1.44,0,0,0-1.44-.73,1.43,1.43,0,0,0-1.26,1l-.09.28c-.26.76-.52,1.54-.74,2.33a.54.54,0,0,1-.33.36l-1.7.88-.09,0-.53.27a2.45,2.45,0,0,0,.33-1.22,2.59,2.59,0,0,0-2.56-2.58,2.64,2.64,0,0,0-1.86.76,2.53,2.53,0,0,0-.75,1.79,2.65,2.65,0,0,0,.75,1.83,2.49,2.49,0,0,0,1.48.73c-.82.4-1.66.79-2.5,1.13-.06,0-.06,0-.09,0l-2.79-1a1.49,1.49,0,1,0-1,2.82l1.67.59,1.61.57A1.65,1.65,0,0,0,23,28.88l1.44-.64L25,28l1.6,3.2a2.84,2.84,0,0,0,2.19,1.62l1.72.27.3,0,1.74.27.09,0L34,34.67l.83.74,1.1,1a1.6,1.6,0,0,0,1,.42,1.53,1.53,0,0,0,1.49-1.3,1.57,1.57,0,0,0-.55-1.37l-1.43-1.27-1.9-1.69,0,0ZM22.05,28.07l-1.62-.58-1.66-.59a.57.57,0,1,1,.38-1.08l2.77,1a1,1,0,0,0,.75,0c2-.8,3.88-1.79,5.74-2.76l1.77-.91a1.43,1.43,0,0,0,.79-.93c.23-.79.5-1.6.74-2.32l.08-.25a.52.52,0,0,1,.49-.39.54.54,0,0,1,.55.3.49.49,0,0,1,.05.44c-.32,1-.65,2-1,3l-.12.37a.72.72,0,0,1-.38.41l-1.49.77-1,.55,2,4,.42-.24.46-.26c.36-.2.72-.4,1.07-.61a.65.65,0,0,1,.83.05l2.51,1.77,1.36,1a.58.58,0,0,1-.14,1.08.44.44,0,0,1-.37-.06c-.4-.25-.8-.54-1.19-.81l-.66-.47c-.53-.37-1.06-.74-1.59-1.13a.72.72,0,0,0-.82,0l-.69.39-.09.05-.57.32a.92.92,0,0,0-.24.19l-.27.25.25.59,1.49.23.56.07a.84.84,0,0,1,.5.24l1.78,1.58,1.8,1.59a.7.7,0,0,1,.25.58.56.56,0,0,1-.31.42.59.59,0,0,1-.7-.12l-1.09-1L34.61,34c-.47-.41-.93-.83-1.4-1.23a1.11,1.11,0,0,0-.55-.25L31,32.25h0l-2-.3a2,2,0,0,1-1.52-1.12l-1.67-3.34a1.22,1.22,0,0,0-.08-.17l-.24-.46-.56.23-.26.12-.48.2L22.65,28A.74.74,0,0,1,22.05,28.07Zm11.26,2.44-.53-.07H32.7l.44-.25.61.44A1.58,1.58,0,0,0,33.31,30.51Zm-8.1-10v.12a1.68,1.68,0,0,1,1.64,1.68,1.61,1.61,0,0,1-.48,1.14,1.7,1.7,0,0,1-1.2.5A1.6,1.6,0,0,1,24,23.43a1.66,1.66,0,0,1-.49-1.19A1.61,1.61,0,0,1,24,21.1a1.7,1.7,0,0,1,1.21-.5v-.12Z"/><path class="cls-2" d="M16.13,27a1.32,1.32,0,0,0-.28,0H3.19c-.18,0-.27,0-.34-.07s-.07-.17-.07-.34V24.37c0-.51.06-.57.57-.57h5.7c.4,0,.66-.2.67-.54a7.41,7.41,0,0,0-.06-1.49,3.48,3.48,0,0,0-3.53-2.93h-3a.34.34,0,0,1-.27-.08c-.07-.08,0-.18,0-.29a2.69,2.69,0,0,1,2.62-2.09h22a2.81,2.81,0,0,1,.92.17A2.59,2.59,0,0,1,30,18.14a.62.62,0,0,0,.81.38.63.63,0,0,0,.33-.31.69.69,0,0,0,0-.51,3.82,3.82,0,0,0-2.35-2.31c-.26-.1-.37-.15-.41-.27s0-.1.05-.23a1.07,1.07,0,0,0,.11-.26c.18-.6.16-1-.05-1.15s-.6,0-.62,0l0,0a1.53,1.53,0,0,1-.13.16l-.22.26-.15-.39c0-.13-.09-.25-.14-.37l-.85-2.34L24.82,6.63a.59.59,0,0,0-.65-.45H8.8a.62.62,0,0,0-.68.47L5.9,12.76c-.07.19-.14.39-.22.59l-.21.56-.21-.24s-.08-.13-.12-.19l-.08-.15,0-.06-.08,0a1,1,0,0,0-.69.57A1.21,1.21,0,0,0,4.58,15a.18.18,0,0,1,0,.2.32.32,0,0,1-.22.15A3.9,3.9,0,0,0,1.56,19V30.85a1.73,1.73,0,0,0,1.76,1.79H7a1.75,1.75,0,0,0,1.73-1.77V28.59c0-.34,0-.4.39-.4H16a.61.61,0,0,0,.57-.54A.6.6,0,0,0,16.13,27ZM2.86,28.27a.35.35,0,0,1,.24-.08H7.15a.36.36,0,0,1,.27.08.31.31,0,0,1,.08.27v2.19c0,.48-.21.69-.69.69H3.46c-.48,0-.67-.19-.68-.67V30c0-.48,0-1,0-1.43A.35.35,0,0,1,2.86,28.27Zm-.08-7.88a.37.37,0,0,1,.08-.26h0a.29.29,0,0,1,.26-.08H6.18A2.38,2.38,0,0,1,8.5,22.11v.09a.2.2,0,0,1,0,.07.29.29,0,0,1-.06.23.3.3,0,0,1-.23.08h-5c-.34,0-.4,0-.4-.39v-1.8Zm3.72-5.7.71-2C7.82,11,8.44,9.36,9,7.67a.39.39,0,0,1,.4-.28q7,0,14.07,0a.38.38,0,0,1,.4.31c.34.92.67,1.84,1,2.76l1.56,4.29c.06.15.08.24,0,.33s-.16.09-.31.09H6.83c-.21,0-.31,0-.37-.1S6.42,14.91,6.5,14.69Z"/><path class="cls-2" d="M20.07,22.25H14.49A.49.49,0,0,1,14,22c-.29-.51-.53-.89-.76-1.24a.59.59,0,0,0-.51-.28h0a.61.61,0,0,0-.51.33.65.65,0,0,0,.05.63l1.05,1.72a.63.63,0,0,0,.59.32h5.68c.23,0,.47,0,.7,0a.61.61,0,1,0,0-1.22Z"/><polyline class="cls-2" points="17.97 29.09 16.63 30.43 17.63 30.43 17.97 29.09"/><polyline class="cls-2" points="17.3 28.76 15.3 30.09 16.3 30.09 17.3 28.76"/></svg>