<svg xmlns="http://www.w3.org/2000/svg" width="20" height="20" viewBox="0 0 20 20">
    <g fill="none" fill-rule="nonzero">
        <path fill="#485A96" d="M18.896 20c.61 0 1.104-.494 1.104-1.104V1.104C20 .494 19.506 0 18.896 0H1.104C.494 0 0 .494 0 1.104v17.792C0 19.506.494 20 1.104 20h17.792z"/>
        <path fill="#FFF" d="M14.491 20v-8.21h2.948l.442-3.2h-3.39V6.547c0-.927.275-1.558 1.696-1.558L18 4.988V2.126A25.933 25.933 0 0 0 15.359 2c-2.614 0-4.403 1.491-4.403 4.23v2.36H8v3.2h2.956V20h3.535z"/>
    </g>
</svg>
