<svg xmlns="http://www.w3.org/2000/svg" width="20" height="20" viewBox="0 0 20 20">
    <g fill="none" fill-rule="evenodd">
        <path fill="#FFC107" d="M19.805 8.041H19l-.022.013-8.985.01L10 12h5.652A6.001 6.001 0 0 1 10 16c-3.314 0-6-2.686-6-6s2.686-6 6-6c1.53 0 2.922.576 3.98 1.52L16.81 2.69A9.952 9.952 0 0 0 10 0C4.477 0 0 4.477 0 10s4.477 10 10 10 10-4.477 10-10c0-.67-.068-1.324-.195-1.959z"/>
        <path fill="#FF3D00" d="M1.152 5.346l3.287 2.41A5.996 5.996 0 0 1 10 4c1.53 0 2.922.576 3.98 1.52L16.81 2.69A9.952 9.952 0 0 0 10 0a9.994 9.994 0 0 0-8.848 5.346z"/>
        <path fill="#4CAF50" d="M10 20c2.582 0 4.93-.988 6.705-2.596l-3.096-2.619A5.96 5.96 0 0 1 10 16a5.995 5.995 0 0 1-5.64-3.973L1.097 14.54C2.752 17.777 6.113 20 10 20z"/>
        <path fill="#1976D2" d="M19.805 8.041l-9.801.011L10 12h5.652a6.027 6.027 0 0 1-2.045 2.785h.002l3.096 2.62C16.486 17.601 20 15 20 10c0-.67-.068-1.324-.195-1.959z"/>
    </g>
</svg>
